<?xml version="1.0" standalone="no"?>
<!DOCTYPE svg PUBLIC "-//W3C//DTD SVG 20010904//EN"
 "http://www.w3.org/TR/2001/REC-SVG-20010904/DTD/svg10.dtd">
<svg version="1.0" xmlns="http://www.w3.org/2000/svg"
 width="420.000000pt" height="422.000000pt" viewBox="0 0 420.000000 422.000000"
 preserveAspectRatio="xMidYMid meet">

<g transform="translate(0.000000,422.000000) scale(0.100000,-0.100000)"
fill="#000000" stroke="none">
<path d="M686 3943 c-232 -49 -428 -211 -519 -429 -59 -139 -58 -114 -55
-1349 3 -1057 5 -1134 22 -1190 61 -202 198 -368 379 -457 152 -75 107 -72
940 -75 l747 -4 25 25 c41 41 34 73 -39 160 -35 42 -78 103 -95 136 -18 33
-37 63 -44 67 -7 4 -300 10 -652 13 -629 5 -641 5 -687 27 -66 30 -133 96
-165 162 l-28 56 0 1115 0 1115 28 56 c32 66 99 132 165 162 l47 22 1115 0
1115 0 47 -22 c66 -30 133 -96 165 -162 l28 -56 3 -571 3 -572 24 -24 c20 -20
39 -26 93 -31 37 -3 92 -15 122 -26 76 -29 113 -27 140 6 21 27 21 28 18 652
l-3 626 -28 80 c-91 258 -289 435 -549 489 -68 14 -209 16 -1185 15 -941 -1
-1118 -3 -1177 -16z"/>
<path d="M1318 3038 c-19 -15 -498 -1502 -498 -1547 0 -42 23 -51 123 -51 68
0 87 3 99 18 8 9 32 72 53 140 l39 122 326 0 326 0 38 -119 c53 -166 48 -161
157 -161 77 0 92 3 110 21 14 14 19 28 15 42 -3 12 -114 360 -246 772 -150
469 -246 755 -257 763 -11 8 -58 12 -143 12 -86 0 -131 -4 -142 -12z m267
-693 c64 -198 118 -366 120 -372 3 -10 -50 -13 -244 -13 l-248 0 117 364 c127
395 131 406 136 391 2 -5 55 -172 119 -370z"/>
<path d="M2487 3032 c-16 -17 -17 -86 -17 -789 0 -733 1 -771 18 -786 28 -26
182 -24 205 1 16 17 17 86 17 789 0 733 -1 771 -18 786 -28 26 -182 24 -205
-1z"/>
<path d="M3286 1698 c-8 -13 -49 -111 -92 -218 -130 -326 -164 -360 -490 -490
-115 -46 -215 -88 -222 -93 -7 -6 -12 -21 -10 -35 3 -22 24 -33 208 -106 245
-98 252 -102 319 -162 81 -73 109 -123 201 -354 84 -211 86 -215 115 -215 29
0 31 4 115 210 99 245 108 262 163 323 66 72 139 112 356 196 198 78 228 96
215 130 -3 8 -98 51 -212 96 -218 86 -275 117 -342 181 -64 63 -94 119 -176
328 -42 108 -84 204 -92 214 -20 23 -39 22 -56 -5z"/>
</g>
</svg>
