<?xml version="1.0" standalone="no"?>
<!DOCTYPE svg PUBLIC "-//W3C//DTD SVG 20010904//EN"
 "http://www.w3.org/TR/2001/REC-SVG-20010904/DTD/svg10.dtd">
<svg version="1.0" xmlns="http://www.w3.org/2000/svg"
 width="512.000000pt" height="528.000000pt" viewBox="0 0 512.000000 528.000000"
 preserveAspectRatio="xMidYMid meet">

<g transform="translate(0.000000,528.000000) scale(0.100000,-0.100000)"
fill="#000000" stroke="none">
<path d="M2420 5165 c-285 -57 -551 -275 -762 -625 -25 -41 -57 -98 -71 -127
l-27 -52 -172 0 c-338 -1 -615 -74 -796 -208 -17 -13 -36 -22 -41 -18 -6 3
-34 10 -63 15 -179 33 -358 -97 -387 -281 -18 -111 18 -217 100 -298 49 -48
49 -49 49 -113 0 -206 103 -505 260 -760 l49 -78 -49 -78 c-153 -248 -243
-500 -256 -722 l-7 -105 -44 -43 c-24 -24 -57 -71 -74 -105 -24 -52 -29 -74
-29 -142 0 -68 5 -90 29 -142 67 -140 216 -220 360 -193 29 5 56 12 61 15 4 2
38 -15 75 -40 126 -83 317 -148 515 -176 47 -6 160 -12 253 -13 l167 -1 53
-95 c329 -593 785 -838 1242 -665 249 94 476 317 669 660 l56 99 172 2 c331 3
587 68 776 197 46 32 56 35 80 25 15 -6 59 -11 97 -11 94 0 176 35 243 107 69
73 95 146 90 251 -5 97 -34 159 -102 225 -45 43 -46 46 -46 106 0 206 -98 498
-253 752 l-56 92 56 93 c154 252 253 545 253 750 0 59 1 62 46 104 26 26 58
71 76 109 84 180 -5 391 -194 460 -50 19 -170 21 -211 5 -24 -9 -34 -6 -102
39 -184 120 -438 181 -756 181 l-168 0 -47 86 c-293 537 -702 801 -1114 718z
m275 -170 c84 -18 197 -70 279 -129 72 -52 205 -187 266 -271 45 -61 150 -234
150 -246 0 -4 -19 -10 -42 -14 -204 -31 -479 -100 -675 -170 l-103 -37 -102
37 c-197 70 -471 139 -676 170 -50 8 -51 6 10 112 129 227 344 436 527 512
118 50 243 62 366 36z m-1218 -818 c-74 -194 -169 -530 -197 -697 -6 -36 -13
-75 -15 -87 -3 -11 -38 -49 -77 -83 -116 -98 -352 -336 -441 -443 l-81 -98
-34 53 c-89 141 -167 344 -196 517 -23 135 -26 126 51 140 160 29 270 145 289
302 7 63 -13 150 -49 208 -20 33 -20 34 -1 49 62 47 258 115 399 136 124 19
359 21 352 3z m2532 -3 c58 -8 153 -31 210 -50 103 -34 215 -90 209 -103 -53
-98 -62 -129 -62 -206 0 -65 4 -90 26 -136 51 -112 137 -177 261 -200 l68 -13
-6 -55 c-22 -195 -115 -452 -220 -608 l-22 -33 -90 108 c-91 107 -321 338
-441 442 l-63 55 -33 166 c-40 197 -82 350 -142 516 -24 67 -44 124 -44 127 0
12 247 5 349 -10z m-2236 -9 c171 -26 547 -118 547 -134 0 -3 -67 -39 -148
-78 -197 -97 -367 -194 -546 -314 -82 -55 -151 -98 -153 -95 -9 9 68 299 112
421 54 150 78 215 82 215 2 0 49 -7 106 -15z m1742 -87 c63 -167 155 -483 155
-535 0 -7 -37 14 -82 46 -180 128 -516 322 -695 401 -40 18 -73 36 -73 40 0
21 506 139 640 149 11 1 28 -31 55 -101z m-2980 -124 c68 -44 91 -155 47 -226
-71 -115 -234 -107 -298 14 -8 15 -14 49 -14 76 0 132 153 210 265 136z m4264
-2 c46 -34 71 -81 71 -134 0 -57 -17 -96 -60 -132 -127 -106 -313 13 -270 173
29 110 169 160 259 93z m-2121 -53 c317 -135 673 -341 943 -545 l96 -73 12
-93 c43 -353 43 -783 0 -1136 l-12 -93 -96 -73 c-272 -206 -625 -409 -946
-546 l-100 -43 -50 18 c-82 28 -447 209 -578 286 -151 89 -302 190 -428 285
l-96 73 -12 93 c-43 352 -43 783 0 1136 l11 92 67 52 c94 74 316 223 451 303
188 111 586 304 629 305 7 0 56 -18 109 -41z m-1452 -826 c-16 -100 -25 -466
-16 -660 5 -115 12 -225 16 -245 3 -21 2 -38 -3 -38 -16 0 -297 292 -377 392
l-78 98 33 42 c76 98 141 171 273 306 77 78 144 142 149 142 5 0 6 -17 3 -37z
m2845 -110 c80 -82 180 -192 223 -245 l78 -98 -78 -97 c-83 -104 -369 -401
-377 -393 -3 3 -1 55 4 115 10 118 13 612 5 692 -14 133 -16 173 -8 173 5 0
74 -66 153 -147z m-3314 -600 c91 -108 322 -340 441 -443 l63 -55 34 -170 c37
-184 95 -392 150 -540 19 -51 35 -96 35 -99 0 -12 -246 -6 -349 10 -58 8 -153
31 -210 50 -102 34 -215 89 -209 103 2 3 16 33 33 66 26 52 30 71 30 140 -1
65 -6 91 -27 136 -51 112 -137 177 -261 200 -77 14 -74 5 -51 140 29 170 93
345 181 492 26 42 48 77 48 77 1 0 42 -48 92 -107z m3795 -23 c76 -138 145
-356 163 -511 l6 -55 -68 -13 c-124 -23 -210 -88 -261 -200 -22 -46 -26 -71
-26 -136 0 -77 9 -108 62 -206 5 -11 -97 -65 -178 -94 -132 -47 -242 -66 -422
-72 -93 -3 -168 -2 -168 2 0 4 16 49 35 100 55 148 113 356 150 540 l34 170
63 55 c119 103 350 335 441 442 l90 108 22 -33 c12 -17 38 -61 57 -97z m-2802
-819 c145 -90 369 -212 488 -266 45 -21 82 -41 82 -45 0 -8 -188 -62 -335 -95
-107 -24 -316 -58 -320 -53 -8 9 -97 256 -118 328 -28 93 -77 288 -77 307 0 7
35 -12 78 -43 42 -31 133 -91 202 -133z m1905 102 c-27 -124 -83 -308 -132
-438 -25 -66 -47 -121 -48 -123 -4 -5 -213 29 -320 53 -154 35 -335 86 -335
95 0 4 42 26 93 50 200 92 558 302 707 414 25 18 47 32 49 30 2 -2 -5 -38 -14
-81z m-3128 -55 c78 -47 102 -158 51 -235 -91 -138 -308 -74 -308 92 0 134
142 213 257 143z m4215 22 c77 -22 128 -87 128 -165 0 -95 -71 -167 -165 -167
-97 0 -170 71 -169 166 0 97 53 154 164 175 3 0 22 -4 42 -9z m-2081 -511
c185 -68 502 -148 682 -174 26 -3 47 -9 47 -12 0 -14 -76 -144 -128 -218 -71
-100 -208 -244 -288 -301 -317 -226 -651 -181 -949 128 -50 51 -113 124 -139
161 -49 68 -136 215 -136 229 0 4 21 10 48 13 180 26 503 108 677 173 44 17
85 31 91 31 5 1 48 -13 95 -30z"/>
<path d="M2093 3193 c-24 -22 -80 -147 -247 -550 -119 -286 -216 -530 -216
-541 0 -30 40 -71 76 -78 52 -10 83 30 150 194 l58 142 228 0 229 0 23 -52
c12 -29 42 -99 66 -156 34 -83 48 -106 72 -118 56 -29 118 8 118 70 0 38 -421
1060 -448 1088 -10 10 -31 20 -48 24 -26 5 -37 1 -61 -23z m131 -476 c40 -97
71 -179 68 -182 -7 -7 -302 -7 -302 1 0 6 139 344 147 357 3 5 7 7 9 5 2 -3
37 -84 78 -181z"/>
<path d="M2793 3210 c-35 -14 -56 -55 -49 -94 10 -53 27 -60 145 -66 l106 -5
0 -425 0 -425 -108 -5 c-99 -5 -111 -7 -128 -29 -26 -32 -24 -74 5 -108 l24
-28 285 -3 284 -3 32 26 c40 34 43 84 6 120 -22 23 -31 25 -125 25 l-100 0 0
430 0 430 100 0 c94 0 103 2 125 25 42 41 31 105 -22 133 -26 14 -546 16 -580
2z"/>
</g>
</svg>
